<?xml version="1.0" encoding="UTF-8"?>
<mxfile host="app.diagrams.net" agent="Mozilla/5.0 (Windows NT 10.0; Win64; x64) AppleWebKit/537.36 (KHTML, like Gecko) Chrome/131.0.0.0 Safari/537.36" scale="1" border="0" version="25.0.1">
  <diagram name="Page-1" id="Yc5BW86H36Yye9AqeS9Z">
    <mxGraphModel dx="3130" dy="2358" grid="1" gridSize="10" guides="1" tooltips="1" connect="1" arrows="1" fold="1" page="1" pageScale="1" pageWidth="850" pageHeight="1100" math="0" shadow="0">
      <root>
        <mxCell id="0" />
        <mxCell id="1" parent="0" />
        <mxCell id="Q7KNSdvCbGsIXJxkzza6-1" value="ART_OBJECTS" style="rounded=0;whiteSpace=wrap;html=1;" parent="1" vertex="1">
          <mxGeometry x="305" y="330" width="120" height="60" as="geometry" />
        </mxCell>
        <mxCell id="Q7KNSdvCbGsIXJxkzza6-2" value="" style="endArrow=none;html=1;rounded=0;exitX=0.25;exitY=0;exitDx=0;exitDy=0;" parent="1" source="Q7KNSdvCbGsIXJxkzza6-1" target="Q7KNSdvCbGsIXJxkzza6-3" edge="1">
          <mxGeometry width="50" height="50" relative="1" as="geometry">
            <mxPoint x="360" y="310" as="sourcePoint" />
            <mxPoint x="330" y="300" as="targetPoint" />
          </mxGeometry>
        </mxCell>
        <mxCell id="Q7KNSdvCbGsIXJxkzza6-3" value="ArtID" style="ellipse;whiteSpace=wrap;html=1;align=center;fontStyle=4;" parent="1" vertex="1">
          <mxGeometry x="210" y="270" width="100" height="40" as="geometry" />
        </mxCell>
        <mxCell id="Q7KNSdvCbGsIXJxkzza6-4" value="" style="endArrow=none;html=1;rounded=0;exitX=0.5;exitY=0;exitDx=0;exitDy=0;" parent="1" source="Q7KNSdvCbGsIXJxkzza6-1" target="Q7KNSdvCbGsIXJxkzza6-5" edge="1">
          <mxGeometry width="50" height="50" relative="1" as="geometry">
            <mxPoint x="440" y="290" as="sourcePoint" />
            <mxPoint x="410" y="280" as="targetPoint" />
          </mxGeometry>
        </mxCell>
        <mxCell id="Q7KNSdvCbGsIXJxkzza6-5" value="Artist" style="ellipse;whiteSpace=wrap;html=1;align=center;" parent="1" vertex="1">
          <mxGeometry x="270" y="220" width="100" height="40" as="geometry" />
        </mxCell>
        <mxCell id="Q7KNSdvCbGsIXJxkzza6-6" value="" style="endArrow=none;html=1;rounded=0;entryX=0;entryY=0.75;entryDx=0;entryDy=0;" parent="1" target="Q7KNSdvCbGsIXJxkzza6-1" edge="1">
          <mxGeometry width="50" height="50" relative="1" as="geometry">
            <mxPoint x="270" y="410" as="sourcePoint" />
            <mxPoint x="300" y="420" as="targetPoint" />
          </mxGeometry>
        </mxCell>
        <mxCell id="Q7KNSdvCbGsIXJxkzza6-7" value="Description" style="ellipse;whiteSpace=wrap;html=1;align=center;" parent="1" vertex="1">
          <mxGeometry x="230" y="490" width="100" height="40" as="geometry" />
        </mxCell>
        <mxCell id="Q7KNSdvCbGsIXJxkzza6-8" value="Year" style="ellipse;whiteSpace=wrap;html=1;align=center;" parent="1" vertex="1">
          <mxGeometry x="210" y="410" width="100" height="40" as="geometry" />
        </mxCell>
        <mxCell id="Q7KNSdvCbGsIXJxkzza6-10" value="" style="endArrow=none;html=1;rounded=0;exitX=0.325;exitY=1.017;exitDx=0;exitDy=0;exitPerimeter=0;entryX=0.385;entryY=0.125;entryDx=0;entryDy=0;entryPerimeter=0;" parent="1" source="Q7KNSdvCbGsIXJxkzza6-1" target="Q7KNSdvCbGsIXJxkzza6-7" edge="1">
          <mxGeometry width="50" height="50" relative="1" as="geometry">
            <mxPoint x="440" y="430" as="sourcePoint" />
            <mxPoint x="490" y="380" as="targetPoint" />
          </mxGeometry>
        </mxCell>
        <mxCell id="Q7KNSdvCbGsIXJxkzza6-11" value="" style="endArrow=none;html=1;rounded=0;entryX=0;entryY=0.25;entryDx=0;entryDy=0;" parent="1" target="Q7KNSdvCbGsIXJxkzza6-1" edge="1">
          <mxGeometry width="50" height="50" relative="1" as="geometry">
            <mxPoint x="250" y="350" as="sourcePoint" />
            <mxPoint x="230" y="335" as="targetPoint" />
          </mxGeometry>
        </mxCell>
        <mxCell id="Q7KNSdvCbGsIXJxkzza6-12" value="Title" style="ellipse;whiteSpace=wrap;html=1;align=center;" parent="1" vertex="1">
          <mxGeometry x="180" y="340" width="100" height="40" as="geometry" />
        </mxCell>
        <mxCell id="Q7KNSdvCbGsIXJxkzza6-13" value="" style="endArrow=none;html=1;rounded=0;entryX=0.5;entryY=1;entryDx=0;entryDy=0;" parent="1" target="Q7KNSdvCbGsIXJxkzza6-1" edge="1">
          <mxGeometry width="50" height="50" relative="1" as="geometry">
            <mxPoint x="365" y="560" as="sourcePoint" />
            <mxPoint x="440" y="480" as="targetPoint" />
          </mxGeometry>
        </mxCell>
        <mxCell id="Q7KNSdvCbGsIXJxkzza6-14" value="" style="endArrow=none;html=1;rounded=0;entryX=0.563;entryY=0.967;entryDx=0;entryDy=0;entryPerimeter=0;" parent="1" target="Q7KNSdvCbGsIXJxkzza6-1" edge="1">
          <mxGeometry width="50" height="50" relative="1" as="geometry">
            <mxPoint x="373" y="560" as="sourcePoint" />
            <mxPoint x="375" y="400" as="targetPoint" />
          </mxGeometry>
        </mxCell>
        <mxCell id="Q7KNSdvCbGsIXJxkzza6-15" value="&lt;font style=&quot;font-size: 18px;&quot;&gt;d&lt;/font&gt;" style="ellipse;whiteSpace=wrap;html=1;aspect=fixed;" parent="1" vertex="1">
          <mxGeometry x="350" y="550" width="40" height="40" as="geometry" />
        </mxCell>
        <mxCell id="Q7KNSdvCbGsIXJxkzza6-16" value="Art_type" style="text;html=1;align=center;verticalAlign=middle;resizable=0;points=[];autosize=1;strokeColor=none;fillColor=none;" parent="1" vertex="1">
          <mxGeometry x="370" y="450" width="70" height="30" as="geometry" />
        </mxCell>
        <mxCell id="Q7KNSdvCbGsIXJxkzza6-17" value="PAINTING" style="rounded=0;whiteSpace=wrap;html=1;" parent="1" vertex="1">
          <mxGeometry x="210" y="660" width="90" height="40" as="geometry" />
        </mxCell>
        <mxCell id="Q7KNSdvCbGsIXJxkzza6-18" value="SCULPTURE/STATUE" style="rounded=0;whiteSpace=wrap;html=1;" parent="1" vertex="1">
          <mxGeometry x="425" y="670" width="145" height="60" as="geometry" />
        </mxCell>
        <mxCell id="Q7KNSdvCbGsIXJxkzza6-20" value="OTHER" style="rounded=0;whiteSpace=wrap;html=1;" parent="1" vertex="1">
          <mxGeometry x="60" y="670" width="90" height="40" as="geometry" />
        </mxCell>
        <mxCell id="Q7KNSdvCbGsIXJxkzza6-21" value="" style="endArrow=none;html=1;rounded=0;entryX=0;entryY=0.5;entryDx=0;entryDy=0;exitX=0.5;exitY=0;exitDx=0;exitDy=0;" parent="1" source="Q7KNSdvCbGsIXJxkzza6-20" target="Q7KNSdvCbGsIXJxkzza6-15" edge="1">
          <mxGeometry width="50" height="50" relative="1" as="geometry">
            <mxPoint x="280" y="630" as="sourcePoint" />
            <mxPoint x="330" y="580" as="targetPoint" />
          </mxGeometry>
        </mxCell>
        <mxCell id="Q7KNSdvCbGsIXJxkzza6-22" value="" style="endArrow=none;html=1;rounded=0;entryX=0;entryY=1;entryDx=0;entryDy=0;exitX=0.378;exitY=0.038;exitDx=0;exitDy=0;exitPerimeter=0;" parent="1" source="Q7KNSdvCbGsIXJxkzza6-17" target="Q7KNSdvCbGsIXJxkzza6-15" edge="1">
          <mxGeometry width="50" height="50" relative="1" as="geometry">
            <mxPoint x="290" y="650" as="sourcePoint" />
            <mxPoint x="340" y="600" as="targetPoint" />
          </mxGeometry>
        </mxCell>
        <mxCell id="Q7KNSdvCbGsIXJxkzza6-23" value="" style="endArrow=none;html=1;rounded=0;entryX=1;entryY=1;entryDx=0;entryDy=0;exitX=0.25;exitY=0;exitDx=0;exitDy=0;" parent="1" source="Q7KNSdvCbGsIXJxkzza6-18" target="Q7KNSdvCbGsIXJxkzza6-15" edge="1">
          <mxGeometry width="50" height="50" relative="1" as="geometry">
            <mxPoint x="390" y="640" as="sourcePoint" />
            <mxPoint x="440" y="590" as="targetPoint" />
          </mxGeometry>
        </mxCell>
        <mxCell id="Q7KNSdvCbGsIXJxkzza6-26" value="" style="endArrow=none;html=1;rounded=0;entryX=0.5;entryY=1;entryDx=0;entryDy=0;exitX=0.5;exitY=0;exitDx=0;exitDy=0;" parent="1" source="Q7KNSdvCbGsIXJxkzza6-27" target="Q7KNSdvCbGsIXJxkzza6-17" edge="1">
          <mxGeometry width="50" height="50" relative="1" as="geometry">
            <mxPoint x="280" y="760" as="sourcePoint" />
            <mxPoint x="370" y="750" as="targetPoint" />
          </mxGeometry>
        </mxCell>
        <mxCell id="Q7KNSdvCbGsIXJxkzza6-27" value="Paint_Type" style="ellipse;whiteSpace=wrap;html=1;align=center;" parent="1" vertex="1">
          <mxGeometry x="195" y="760" width="70" height="30" as="geometry" />
        </mxCell>
        <mxCell id="Q7KNSdvCbGsIXJxkzza6-28" value="" style="endArrow=none;html=1;rounded=0;entryX=0.75;entryY=1;entryDx=0;entryDy=0;" parent="1" source="Q7KNSdvCbGsIXJxkzza6-29" target="Q7KNSdvCbGsIXJxkzza6-17" edge="1">
          <mxGeometry width="50" height="50" relative="1" as="geometry">
            <mxPoint x="320" y="810" as="sourcePoint" />
            <mxPoint x="420" y="750" as="targetPoint" />
          </mxGeometry>
        </mxCell>
        <mxCell id="Q7KNSdvCbGsIXJxkzza6-29" value="Style" style="ellipse;whiteSpace=wrap;html=1;align=center;" parent="1" vertex="1">
          <mxGeometry x="230" y="830" width="80" height="30" as="geometry" />
        </mxCell>
        <mxCell id="Q7KNSdvCbGsIXJxkzza6-31" value="" style="endArrow=none;html=1;rounded=0;exitX=0.75;exitY=1;exitDx=0;exitDy=0;" parent="1" source="Q7KNSdvCbGsIXJxkzza6-17" target="Q7KNSdvCbGsIXJxkzza6-32" edge="1">
          <mxGeometry width="50" height="50" relative="1" as="geometry">
            <mxPoint x="460" y="830" as="sourcePoint" />
            <mxPoint x="360" y="880" as="targetPoint" />
          </mxGeometry>
        </mxCell>
        <mxCell id="Q7KNSdvCbGsIXJxkzza6-32" value="Drawn_on" style="ellipse;whiteSpace=wrap;html=1;align=center;" parent="1" vertex="1">
          <mxGeometry x="310" y="860" width="100" height="40" as="geometry" />
        </mxCell>
        <mxCell id="Q7KNSdvCbGsIXJxkzza6-33" value="" style="endArrow=none;html=1;rounded=0;entryX=0.336;entryY=1.011;entryDx=0;entryDy=0;entryPerimeter=0;exitX=0.279;exitY=0.089;exitDx=0;exitDy=0;exitPerimeter=0;" parent="1" source="Q7KNSdvCbGsIXJxkzza6-34" target="Q7KNSdvCbGsIXJxkzza6-18" edge="1">
          <mxGeometry width="50" height="50" relative="1" as="geometry">
            <mxPoint x="455" y="780" as="sourcePoint" />
            <mxPoint x="530" y="790" as="targetPoint" />
          </mxGeometry>
        </mxCell>
        <mxCell id="Q7KNSdvCbGsIXJxkzza6-34" value="Material" style="ellipse;whiteSpace=wrap;html=1;align=center;" parent="1" vertex="1">
          <mxGeometry x="360" y="780" width="100" height="40" as="geometry" />
        </mxCell>
        <mxCell id="Q7KNSdvCbGsIXJxkzza6-35" value="" style="endArrow=none;html=1;rounded=0;entryX=0.5;entryY=1;entryDx=0;entryDy=0;exitX=0.5;exitY=0;exitDx=0;exitDy=0;" parent="1" source="Q7KNSdvCbGsIXJxkzza6-36" target="Q7KNSdvCbGsIXJxkzza6-18" edge="1">
          <mxGeometry width="50" height="50" relative="1" as="geometry">
            <mxPoint x="550" y="830" as="sourcePoint" />
            <mxPoint x="640" y="740" as="targetPoint" />
          </mxGeometry>
        </mxCell>
        <mxCell id="Q7KNSdvCbGsIXJxkzza6-36" value="Height" style="ellipse;whiteSpace=wrap;html=1;align=center;" parent="1" vertex="1">
          <mxGeometry x="450" y="810" width="100" height="40" as="geometry" />
        </mxCell>
        <mxCell id="Q7KNSdvCbGsIXJxkzza6-37" value="" style="endArrow=none;html=1;rounded=0;entryX=0.75;entryY=1;entryDx=0;entryDy=0;" parent="1" target="Q7KNSdvCbGsIXJxkzza6-18" edge="1">
          <mxGeometry width="50" height="50" relative="1" as="geometry">
            <mxPoint x="570" y="900" as="sourcePoint" />
            <mxPoint x="630" y="750" as="targetPoint" />
          </mxGeometry>
        </mxCell>
        <mxCell id="Q7KNSdvCbGsIXJxkzza6-38" value="Weight" style="ellipse;whiteSpace=wrap;html=1;align=center;" parent="1" vertex="1">
          <mxGeometry x="530" y="890" width="100" height="40" as="geometry" />
        </mxCell>
        <mxCell id="Q7KNSdvCbGsIXJxkzza6-39" value="" style="endArrow=none;html=1;rounded=0;entryX=0.75;entryY=1;entryDx=0;entryDy=0;exitX=1;exitY=0.5;exitDx=0;exitDy=0;" parent="1" source="Q7KNSdvCbGsIXJxkzza6-18" target="Q7KNSdvCbGsIXJxkzza6-40" edge="1">
          <mxGeometry width="50" height="50" relative="1" as="geometry">
            <mxPoint x="600" y="780" as="sourcePoint" />
            <mxPoint x="570" y="700" as="targetPoint" />
          </mxGeometry>
        </mxCell>
        <mxCell id="Q7KNSdvCbGsIXJxkzza6-40" value="Style" style="ellipse;whiteSpace=wrap;html=1;align=center;" parent="1" vertex="1">
          <mxGeometry x="570" y="750" width="100" height="40" as="geometry" />
        </mxCell>
        <mxCell id="Q7KNSdvCbGsIXJxkzza6-42" value="" style="endArrow=none;html=1;rounded=0;entryX=0.25;entryY=1;entryDx=0;entryDy=0;" parent="1" target="Q7KNSdvCbGsIXJxkzza6-20" edge="1">
          <mxGeometry width="50" height="50" relative="1" as="geometry">
            <mxPoint x="60" y="790" as="sourcePoint" />
            <mxPoint x="90" y="770" as="targetPoint" />
          </mxGeometry>
        </mxCell>
        <mxCell id="Q7KNSdvCbGsIXJxkzza6-44" value="Style" style="ellipse;whiteSpace=wrap;html=1;align=center;" parent="1" vertex="1">
          <mxGeometry x="10" y="790" width="100" height="40" as="geometry" />
        </mxCell>
        <mxCell id="Q7KNSdvCbGsIXJxkzza6-45" value="" style="endArrow=none;html=1;rounded=0;entryX=0.655;entryY=0.958;entryDx=0;entryDy=0;entryPerimeter=0;" parent="1" target="Q7KNSdvCbGsIXJxkzza6-20" edge="1">
          <mxGeometry width="50" height="50" relative="1" as="geometry">
            <mxPoint x="119" y="870" as="sourcePoint" />
            <mxPoint x="160" y="775" as="targetPoint" />
          </mxGeometry>
        </mxCell>
        <mxCell id="Q7KNSdvCbGsIXJxkzza6-47" value="Type" style="ellipse;whiteSpace=wrap;html=1;align=center;" parent="1" vertex="1">
          <mxGeometry x="80" y="860" width="100" height="40" as="geometry" />
        </mxCell>
        <mxCell id="Q7KNSdvCbGsIXJxkzza6-48" value="" style="endArrow=none;html=1;rounded=0;exitX=0.75;exitY=0;exitDx=0;exitDy=0;" parent="1" source="Q7KNSdvCbGsIXJxkzza6-1" edge="1">
          <mxGeometry width="50" height="50" relative="1" as="geometry">
            <mxPoint x="440" y="280" as="sourcePoint" />
            <mxPoint x="500" y="230" as="targetPoint" />
          </mxGeometry>
        </mxCell>
        <mxCell id="Q7KNSdvCbGsIXJxkzza6-49" value="" style="endArrow=none;html=1;rounded=0;exitX=0.761;exitY=-0.116;exitDx=0;exitDy=0;exitPerimeter=0;" parent="1" edge="1">
          <mxGeometry width="50" height="50" relative="1" as="geometry">
            <mxPoint x="406" y="333" as="sourcePoint" />
            <mxPoint x="500" y="240" as="targetPoint" />
          </mxGeometry>
        </mxCell>
        <mxCell id="Q7KNSdvCbGsIXJxkzza6-50" value="&lt;font style=&quot;font-size: 18px;&quot;&gt;d&lt;/font&gt;" style="ellipse;whiteSpace=wrap;html=1;aspect=fixed;" parent="1" vertex="1">
          <mxGeometry x="490" y="210" width="40" height="40" as="geometry" />
        </mxCell>
        <mxCell id="Q7KNSdvCbGsIXJxkzza6-51" value="Collection_Type" style="text;html=1;align=center;verticalAlign=middle;resizable=0;points=[];autosize=1;strokeColor=none;fillColor=none;" parent="1" vertex="1">
          <mxGeometry x="442.5" y="290" width="110" height="30" as="geometry" />
        </mxCell>
        <mxCell id="Q7KNSdvCbGsIXJxkzza6-52" value="" style="endArrow=none;html=1;rounded=0;" parent="1" target="Q7KNSdvCbGsIXJxkzza6-54" edge="1">
          <mxGeometry width="50" height="50" relative="1" as="geometry">
            <mxPoint x="510" y="210" as="sourcePoint" />
            <mxPoint x="350" y="110" as="targetPoint" />
          </mxGeometry>
        </mxCell>
        <mxCell id="Q7KNSdvCbGsIXJxkzza6-54" value="BORROWED" style="whiteSpace=wrap;html=1;align=center;" parent="1" vertex="1">
          <mxGeometry x="300" y="90" width="100" height="40" as="geometry" />
        </mxCell>
        <mxCell id="Q7KNSdvCbGsIXJxkzza6-55" value="" style="endArrow=none;html=1;rounded=0;exitX=1;exitY=0;exitDx=0;exitDy=0;" parent="1" source="Q7KNSdvCbGsIXJxkzza6-50" target="Q7KNSdvCbGsIXJxkzza6-56" edge="1">
          <mxGeometry width="50" height="50" relative="1" as="geometry">
            <mxPoint x="580" y="210" as="sourcePoint" />
            <mxPoint x="550" y="90" as="targetPoint" />
          </mxGeometry>
        </mxCell>
        <mxCell id="Q7KNSdvCbGsIXJxkzza6-56" value="PERMANENT" style="whiteSpace=wrap;html=1;align=center;" parent="1" vertex="1">
          <mxGeometry x="500" y="69.99999999999989" width="100" height="40" as="geometry" />
        </mxCell>
        <mxCell id="Q7KNSdvCbGsIXJxkzza6-57" value="" style="endArrow=none;html=1;rounded=0;exitX=0.126;exitY=0.05;exitDx=0;exitDy=0;exitPerimeter=0;" parent="1" source="Q7KNSdvCbGsIXJxkzza6-56" target="Q7KNSdvCbGsIXJxkzza6-58" edge="1">
          <mxGeometry width="50" height="50" relative="1" as="geometry">
            <mxPoint x="680" y="80" as="sourcePoint" />
            <mxPoint x="500" y="20" as="targetPoint" />
          </mxGeometry>
        </mxCell>
        <mxCell id="Q7KNSdvCbGsIXJxkzza6-58" value="Cost" style="ellipse;whiteSpace=wrap;html=1;align=center;" parent="1" vertex="1">
          <mxGeometry x="450" y="1.1368683772161603e-13" width="100" height="40" as="geometry" />
        </mxCell>
        <mxCell id="Q7KNSdvCbGsIXJxkzza6-59" value="" style="endArrow=none;html=1;rounded=0;exitX=0.5;exitY=0;exitDx=0;exitDy=0;" parent="1" source="Q7KNSdvCbGsIXJxkzza6-56" target="Q7KNSdvCbGsIXJxkzza6-60" edge="1">
          <mxGeometry width="50" height="50" relative="1" as="geometry">
            <mxPoint x="680" y="70" as="sourcePoint" />
            <mxPoint x="590" y="-10" as="targetPoint" />
          </mxGeometry>
        </mxCell>
        <mxCell id="Q7KNSdvCbGsIXJxkzza6-60" value="Status" style="ellipse;whiteSpace=wrap;html=1;align=center;" parent="1" vertex="1">
          <mxGeometry x="540" y="-30" width="100" height="40" as="geometry" />
        </mxCell>
        <mxCell id="Q7KNSdvCbGsIXJxkzza6-61" value="" style="endArrow=none;html=1;rounded=0;exitX=0.911;exitY=-0.055;exitDx=0;exitDy=0;exitPerimeter=0;" parent="1" source="Q7KNSdvCbGsIXJxkzza6-56" target="Q7KNSdvCbGsIXJxkzza6-62" edge="1">
          <mxGeometry width="50" height="50" relative="1" as="geometry">
            <mxPoint x="800" y="70" as="sourcePoint" />
            <mxPoint x="670" y="20" as="targetPoint" />
          </mxGeometry>
        </mxCell>
        <mxCell id="Q7KNSdvCbGsIXJxkzza6-62" value="Date_acquired" style="ellipse;whiteSpace=wrap;html=1;align=center;" parent="1" vertex="1">
          <mxGeometry x="620" width="100" height="40" as="geometry" />
        </mxCell>
        <mxCell id="Q7KNSdvCbGsIXJxkzza6-63" value="" style="endArrow=none;html=1;rounded=0;exitX=0.384;exitY=0.024;exitDx=0;exitDy=0;exitPerimeter=0;" parent="1" source="Q7KNSdvCbGsIXJxkzza6-54" target="Q7KNSdvCbGsIXJxkzza6-64" edge="1">
          <mxGeometry width="50" height="50" relative="1" as="geometry">
            <mxPoint x="310" y="40" as="sourcePoint" />
            <mxPoint x="340" y="40" as="targetPoint" />
          </mxGeometry>
        </mxCell>
        <mxCell id="Q7KNSdvCbGsIXJxkzza6-64" value="Collection_name" style="ellipse;whiteSpace=wrap;html=1;align=center;" parent="1" vertex="1">
          <mxGeometry x="290" y="20" width="100" height="40" as="geometry" />
        </mxCell>
        <mxCell id="Q7KNSdvCbGsIXJxkzza6-65" value="" style="endArrow=none;html=1;rounded=0;entryX=0;entryY=0.25;entryDx=0;entryDy=0;" parent="1" target="Q7KNSdvCbGsIXJxkzza6-54" edge="1">
          <mxGeometry width="50" height="50" relative="1" as="geometry">
            <mxPoint x="230" y="60" as="sourcePoint" />
            <mxPoint x="245" y="120" as="targetPoint" />
          </mxGeometry>
        </mxCell>
        <mxCell id="Q7KNSdvCbGsIXJxkzza6-66" value="" style="endArrow=none;html=1;rounded=0;entryX=0;entryY=0.5;entryDx=0;entryDy=0;" parent="1" target="Q7KNSdvCbGsIXJxkzza6-54" edge="1">
          <mxGeometry width="50" height="50" relative="1" as="geometry">
            <mxPoint x="225" y="60" as="sourcePoint" />
            <mxPoint x="295" y="110" as="targetPoint" />
          </mxGeometry>
        </mxCell>
        <mxCell id="Q7KNSdvCbGsIXJxkzza6-67" value="BORROWED_FROM" style="shape=rhombus;perimeter=rhombusPerimeter;whiteSpace=wrap;html=1;align=center;" parent="1" vertex="1">
          <mxGeometry x="120" width="145" height="80" as="geometry" />
        </mxCell>
        <mxCell id="Q7KNSdvCbGsIXJxkzza6-68" value="1" style="text;html=1;align=center;verticalAlign=middle;resizable=0;points=[];autosize=1;strokeColor=none;fillColor=none;" parent="1" vertex="1">
          <mxGeometry x="265" y="48" width="30" height="30" as="geometry" />
        </mxCell>
        <mxCell id="Q7KNSdvCbGsIXJxkzza6-69" value="" style="endArrow=none;html=1;rounded=0;entryX=0;entryY=0.5;entryDx=0;entryDy=0;" parent="1" target="Q7KNSdvCbGsIXJxkzza6-67" edge="1">
          <mxGeometry width="50" height="50" relative="1" as="geometry">
            <mxPoint x="40" y="40" as="sourcePoint" />
            <mxPoint x="110" y="50" as="targetPoint" />
          </mxGeometry>
        </mxCell>
        <mxCell id="Q7KNSdvCbGsIXJxkzza6-70" value="1" style="text;html=1;align=center;verticalAlign=middle;resizable=0;points=[];autosize=1;strokeColor=none;fillColor=none;" parent="1" vertex="1">
          <mxGeometry x="35" y="8" width="30" height="30" as="geometry" />
        </mxCell>
        <mxCell id="Q7KNSdvCbGsIXJxkzza6-71" value="OTHER_COLLECTIONS" style="whiteSpace=wrap;html=1;align=center;" parent="1" vertex="1">
          <mxGeometry x="-80" y="20" width="140" height="60" as="geometry" />
        </mxCell>
        <mxCell id="Q7KNSdvCbGsIXJxkzza6-72" value="" style="endArrow=none;html=1;rounded=0;entryX=0.086;entryY=1.042;entryDx=0;entryDy=0;entryPerimeter=0;" parent="1" target="Q7KNSdvCbGsIXJxkzza6-71" edge="1">
          <mxGeometry width="50" height="50" relative="1" as="geometry">
            <mxPoint x="-120" y="130" as="sourcePoint" />
            <mxPoint x="-80" y="110" as="targetPoint" />
          </mxGeometry>
        </mxCell>
        <mxCell id="Q7KNSdvCbGsIXJxkzza6-73" value="Name" style="ellipse;whiteSpace=wrap;html=1;align=center;fontStyle=4;" parent="1" vertex="1">
          <mxGeometry x="-190" y="120" width="100" height="40" as="geometry" />
        </mxCell>
        <mxCell id="Q7KNSdvCbGsIXJxkzza6-74" value="" style="endArrow=none;html=1;rounded=0;entryX=0;entryY=0.5;entryDx=0;entryDy=0;" parent="1" target="Q7KNSdvCbGsIXJxkzza6-71" edge="1">
          <mxGeometry width="50" height="50" relative="1" as="geometry">
            <mxPoint x="-150" y="50" as="sourcePoint" />
            <mxPoint x="-120" y="40" as="targetPoint" />
          </mxGeometry>
        </mxCell>
        <mxCell id="Q7KNSdvCbGsIXJxkzza6-75" value="Type" style="ellipse;whiteSpace=wrap;html=1;align=center;" parent="1" vertex="1">
          <mxGeometry x="-240" y="30" width="100" height="40" as="geometry" />
        </mxCell>
        <mxCell id="Q7KNSdvCbGsIXJxkzza6-76" value="" style="endArrow=none;html=1;rounded=0;exitX=0.365;exitY=1.086;exitDx=0;exitDy=0;exitPerimeter=0;" parent="1" source="Q7KNSdvCbGsIXJxkzza6-71" target="Q7KNSdvCbGsIXJxkzza6-77" edge="1">
          <mxGeometry width="50" height="50" relative="1" as="geometry">
            <mxPoint x="-90" y="190" as="sourcePoint" />
            <mxPoint x="-20" y="80" as="targetPoint" />
          </mxGeometry>
        </mxCell>
        <mxCell id="Q7KNSdvCbGsIXJxkzza6-77" value="Description" style="ellipse;whiteSpace=wrap;html=1;align=center;" parent="1" vertex="1">
          <mxGeometry x="-100" y="150" width="100" height="40" as="geometry" />
        </mxCell>
        <mxCell id="Q7KNSdvCbGsIXJxkzza6-78" value="" style="endArrow=none;html=1;rounded=0;entryX=0.65;entryY=0.989;entryDx=0;entryDy=0;entryPerimeter=0;" parent="1" target="Q7KNSdvCbGsIXJxkzza6-71" edge="1">
          <mxGeometry width="50" height="50" relative="1" as="geometry">
            <mxPoint x="11" y="230" as="sourcePoint" />
            <mxPoint x="60" y="140" as="targetPoint" />
          </mxGeometry>
        </mxCell>
        <mxCell id="Q7KNSdvCbGsIXJxkzza6-79" value="Address" style="ellipse;whiteSpace=wrap;html=1;align=center;" parent="1" vertex="1">
          <mxGeometry x="-35" y="230" width="100" height="40" as="geometry" />
        </mxCell>
        <mxCell id="Q7KNSdvCbGsIXJxkzza6-80" value="" style="endArrow=none;html=1;rounded=0;exitX=0;exitY=0;exitDx=0;exitDy=0;" parent="1" source="Q7KNSdvCbGsIXJxkzza6-67" target="Q7KNSdvCbGsIXJxkzza6-82" edge="1">
          <mxGeometry width="50" height="50" relative="1" as="geometry">
            <mxPoint x="215" y="-50" as="sourcePoint" />
            <mxPoint x="150" y="-60" as="targetPoint" />
          </mxGeometry>
        </mxCell>
        <mxCell id="Q7KNSdvCbGsIXJxkzza6-81" value="1" style="text;html=1;align=center;verticalAlign=middle;resizable=0;points=[];autosize=1;strokeColor=none;fillColor=none;" parent="1" vertex="1">
          <mxGeometry x="95" y="8" width="30" height="30" as="geometry" />
        </mxCell>
        <mxCell id="Q7KNSdvCbGsIXJxkzza6-82" value="Date_returned" style="ellipse;whiteSpace=wrap;html=1;align=center;" parent="1" vertex="1">
          <mxGeometry x="100" y="-80" width="100" height="40" as="geometry" />
        </mxCell>
        <mxCell id="Q7KNSdvCbGsIXJxkzza6-83" value="" style="endArrow=none;html=1;rounded=0;" parent="1" source="Q7KNSdvCbGsIXJxkzza6-67" target="Q7KNSdvCbGsIXJxkzza6-84" edge="1">
          <mxGeometry width="50" height="50" relative="1" as="geometry">
            <mxPoint x="270" y="-35" as="sourcePoint" />
            <mxPoint x="240" y="-70" as="targetPoint" />
          </mxGeometry>
        </mxCell>
        <mxCell id="Q7KNSdvCbGsIXJxkzza6-84" value="Date_borrowed" style="ellipse;whiteSpace=wrap;html=1;align=center;" parent="1" vertex="1">
          <mxGeometry x="205" y="-90" width="100" height="40" as="geometry" />
        </mxCell>
        <mxCell id="Q7KNSdvCbGsIXJxkzza6-85" value="" style="endArrow=none;html=1;rounded=0;entryX=0.143;entryY=-0.019;entryDx=0;entryDy=0;entryPerimeter=0;" parent="1" target="Q7KNSdvCbGsIXJxkzza6-71" edge="1">
          <mxGeometry width="50" height="50" relative="1" as="geometry">
            <mxPoint x="-100" y="-30" as="sourcePoint" />
            <mxPoint x="-50" y="-80" as="targetPoint" />
          </mxGeometry>
        </mxCell>
        <mxCell id="Q7KNSdvCbGsIXJxkzza6-86" value="Phone" style="ellipse;whiteSpace=wrap;html=1;align=center;" parent="1" vertex="1">
          <mxGeometry x="-160" y="-70" width="100" height="40" as="geometry" />
        </mxCell>
        <mxCell id="Q7KNSdvCbGsIXJxkzza6-87" value="" style="endArrow=none;html=1;rounded=0;exitX=0.5;exitY=0;exitDx=0;exitDy=0;" parent="1" source="Q7KNSdvCbGsIXJxkzza6-71" target="Q7KNSdvCbGsIXJxkzza6-88" edge="1">
          <mxGeometry width="50" height="50" relative="1" as="geometry">
            <mxPoint x="10" y="-35" as="sourcePoint" />
            <mxPoint x="-10" y="-140" as="targetPoint" />
          </mxGeometry>
        </mxCell>
        <mxCell id="Q7KNSdvCbGsIXJxkzza6-88" value="Contact_person" style="ellipse;whiteSpace=wrap;html=1;align=center;" parent="1" vertex="1">
          <mxGeometry x="-60" y="-160" width="100" height="40" as="geometry" />
        </mxCell>
        <mxCell id="Q7KNSdvCbGsIXJxkzza6-89" value="" style="endArrow=none;html=1;rounded=0;exitX=0.326;exitY=0.037;exitDx=0;exitDy=0;exitPerimeter=0;" parent="1" source="Q7KNSdvCbGsIXJxkzza6-88" target="Q7KNSdvCbGsIXJxkzza6-90" edge="1">
          <mxGeometry width="50" height="50" relative="1" as="geometry">
            <mxPoint x="15" y="-170" as="sourcePoint" />
            <mxPoint x="-50" y="-200" as="targetPoint" />
          </mxGeometry>
        </mxCell>
        <mxCell id="Q7KNSdvCbGsIXJxkzza6-90" value="FName" style="ellipse;whiteSpace=wrap;html=1;align=center;dashed=1;" parent="1" vertex="1">
          <mxGeometry x="-100" y="-220" width="100" height="40" as="geometry" />
        </mxCell>
        <mxCell id="Q7KNSdvCbGsIXJxkzza6-91" value="" style="endArrow=none;html=1;rounded=0;exitX=0.689;exitY=0.129;exitDx=0;exitDy=0;exitPerimeter=0;" parent="1" source="Q7KNSdvCbGsIXJxkzza6-88" target="Q7KNSdvCbGsIXJxkzza6-92" edge="1">
          <mxGeometry width="50" height="50" relative="1" as="geometry">
            <mxPoint x="80" y="-170" as="sourcePoint" />
            <mxPoint x="40" y="-220" as="targetPoint" />
          </mxGeometry>
        </mxCell>
        <mxCell id="Q7KNSdvCbGsIXJxkzza6-92" value="LName" style="ellipse;whiteSpace=wrap;html=1;align=center;dashed=1;" parent="1" vertex="1">
          <mxGeometry x="-10" y="-240" width="100" height="40" as="geometry" />
        </mxCell>
        <mxCell id="Q7KNSdvCbGsIXJxkzza6-95" value="EPoch" style="ellipse;whiteSpace=wrap;html=1;align=center;" parent="1" vertex="1">
          <mxGeometry x="430" y="420" width="100" height="40" as="geometry" />
        </mxCell>
        <mxCell id="Q7KNSdvCbGsIXJxkzza6-97" value="CofOrgin" style="ellipse;whiteSpace=wrap;html=1;align=center;" parent="1" vertex="1">
          <mxGeometry x="560" y="420" width="100" height="40" as="geometry" />
        </mxCell>
        <mxCell id="Q7KNSdvCbGsIXJxkzza6-98" value="" style="endArrow=none;html=1;rounded=0;entryX=1;entryY=1;entryDx=0;entryDy=0;exitX=0;exitY=0;exitDx=0;exitDy=0;" parent="1" source="Q7KNSdvCbGsIXJxkzza6-95" target="Q7KNSdvCbGsIXJxkzza6-1" edge="1">
          <mxGeometry width="50" height="50" relative="1" as="geometry">
            <mxPoint x="450" y="410" as="sourcePoint" />
            <mxPoint x="510" y="370" as="targetPoint" />
          </mxGeometry>
        </mxCell>
        <mxCell id="Q7KNSdvCbGsIXJxkzza6-99" value="" style="endArrow=none;html=1;rounded=0;exitX=1;exitY=0.75;exitDx=0;exitDy=0;" parent="1" source="Q7KNSdvCbGsIXJxkzza6-1" edge="1">
          <mxGeometry width="50" height="50" relative="1" as="geometry">
            <mxPoint x="570" y="410" as="sourcePoint" />
            <mxPoint x="590" y="420" as="targetPoint" />
          </mxGeometry>
        </mxCell>
        <mxCell id="Q7KNSdvCbGsIXJxkzza6-100" value="" style="endArrow=none;html=1;rounded=0;exitX=1;exitY=0.5;exitDx=0;exitDy=0;" parent="1" source="Q7KNSdvCbGsIXJxkzza6-1" target="Q7KNSdvCbGsIXJxkzza6-101" edge="1">
          <mxGeometry width="50" height="50" relative="1" as="geometry">
            <mxPoint x="570" y="380" as="sourcePoint" />
            <mxPoint x="710" y="360" as="targetPoint" />
          </mxGeometry>
        </mxCell>
        <mxCell id="Q7KNSdvCbGsIXJxkzza6-101" value="CREATOR" style="shape=rhombus;perimeter=rhombusPerimeter;whiteSpace=wrap;html=1;align=center;" parent="1" vertex="1">
          <mxGeometry x="650" y="330" width="120" height="60" as="geometry" />
        </mxCell>
        <mxCell id="Q7KNSdvCbGsIXJxkzza6-102" value="N" style="text;html=1;align=center;verticalAlign=middle;resizable=0;points=[];autosize=1;strokeColor=none;fillColor=none;" parent="1" vertex="1">
          <mxGeometry x="615" y="328" width="30" height="30" as="geometry" />
        </mxCell>
        <mxCell id="Q7KNSdvCbGsIXJxkzza6-103" value="" style="endArrow=none;html=1;rounded=0;exitX=0.933;exitY=0.396;exitDx=0;exitDy=0;exitPerimeter=0;" parent="1" source="Q7KNSdvCbGsIXJxkzza6-101" edge="1">
          <mxGeometry width="50" height="50" relative="1" as="geometry">
            <mxPoint x="790" y="350" as="sourcePoint" />
            <mxPoint x="860" y="354" as="targetPoint" />
          </mxGeometry>
        </mxCell>
        <mxCell id="Q7KNSdvCbGsIXJxkzza6-104" value="" style="endArrow=none;html=1;rounded=0;exitX=0.91;exitY=0.665;exitDx=0;exitDy=0;exitPerimeter=0;" parent="1" source="Q7KNSdvCbGsIXJxkzza6-101" target="Q7KNSdvCbGsIXJxkzza6-105" edge="1">
          <mxGeometry width="50" height="50" relative="1" as="geometry">
            <mxPoint x="830" y="440" as="sourcePoint" />
            <mxPoint x="860" y="370" as="targetPoint" />
          </mxGeometry>
        </mxCell>
        <mxCell id="Q7KNSdvCbGsIXJxkzza6-105" value="ARTIST" style="whiteSpace=wrap;html=1;align=center;" parent="1" vertex="1">
          <mxGeometry x="840" y="350" width="100" height="40" as="geometry" />
        </mxCell>
        <mxCell id="Q7KNSdvCbGsIXJxkzza6-106" value="" style="endArrow=none;html=1;rounded=0;exitX=1;exitY=0.5;exitDx=0;exitDy=0;" parent="1" source="Q7KNSdvCbGsIXJxkzza6-105" target="Q7KNSdvCbGsIXJxkzza6-107" edge="1">
          <mxGeometry width="50" height="50" relative="1" as="geometry">
            <mxPoint x="980" y="368" as="sourcePoint" />
            <mxPoint x="1020" y="370" as="targetPoint" />
          </mxGeometry>
        </mxCell>
        <mxCell id="Q7KNSdvCbGsIXJxkzza6-107" value="Name" style="ellipse;whiteSpace=wrap;html=1;align=center;fontStyle=4;" parent="1" vertex="1">
          <mxGeometry x="970" y="350" width="100" height="40" as="geometry" />
        </mxCell>
        <mxCell id="Q7KNSdvCbGsIXJxkzza6-108" value="" style="endArrow=none;html=1;rounded=0;exitX=0.75;exitY=0;exitDx=0;exitDy=0;" parent="1" source="Q7KNSdvCbGsIXJxkzza6-105" target="Q7KNSdvCbGsIXJxkzza6-109" edge="1">
          <mxGeometry width="50" height="50" relative="1" as="geometry">
            <mxPoint x="930" y="315" as="sourcePoint" />
            <mxPoint x="950" y="300" as="targetPoint" />
          </mxGeometry>
        </mxCell>
        <mxCell id="Q7KNSdvCbGsIXJxkzza6-109" value="DateBorn" style="ellipse;whiteSpace=wrap;html=1;align=center;" parent="1" vertex="1">
          <mxGeometry x="900" y="280" width="100" height="40" as="geometry" />
        </mxCell>
        <mxCell id="Q7KNSdvCbGsIXJxkzza6-110" value="" style="endArrow=none;html=1;rounded=0;exitX=0.25;exitY=0;exitDx=0;exitDy=0;" parent="1" source="Q7KNSdvCbGsIXJxkzza6-105" target="Q7KNSdvCbGsIXJxkzza6-111" edge="1">
          <mxGeometry width="50" height="50" relative="1" as="geometry">
            <mxPoint x="840" y="325" as="sourcePoint" />
            <mxPoint x="910" y="230" as="targetPoint" />
          </mxGeometry>
        </mxCell>
        <mxCell id="Q7KNSdvCbGsIXJxkzza6-111" value="Date_Died" style="ellipse;whiteSpace=wrap;html=1;align=center;" parent="1" vertex="1">
          <mxGeometry x="860" y="210" width="100" height="40" as="geometry" />
        </mxCell>
        <mxCell id="Q7KNSdvCbGsIXJxkzza6-112" value="" style="endArrow=none;html=1;rounded=0;entryX=0.5;entryY=1;entryDx=0;entryDy=0;" parent="1" target="Q7KNSdvCbGsIXJxkzza6-105" edge="1">
          <mxGeometry width="50" height="50" relative="1" as="geometry">
            <mxPoint x="880" y="440" as="sourcePoint" />
            <mxPoint x="900" y="415" as="targetPoint" />
          </mxGeometry>
        </mxCell>
        <mxCell id="Q7KNSdvCbGsIXJxkzza6-113" value="Epoch" style="ellipse;whiteSpace=wrap;html=1;align=center;" parent="1" vertex="1">
          <mxGeometry x="830" y="430" width="100" height="40" as="geometry" />
        </mxCell>
        <mxCell id="Q7KNSdvCbGsIXJxkzza6-114" value="" style="endArrow=none;html=1;rounded=0;entryX=0.75;entryY=1;entryDx=0;entryDy=0;" parent="1" source="Q7KNSdvCbGsIXJxkzza6-115" target="Q7KNSdvCbGsIXJxkzza6-105" edge="1">
          <mxGeometry width="50" height="50" relative="1" as="geometry">
            <mxPoint x="1000" y="510" as="sourcePoint" />
            <mxPoint x="1040" y="485" as="targetPoint" />
          </mxGeometry>
        </mxCell>
        <mxCell id="Q7KNSdvCbGsIXJxkzza6-116" value="" style="endArrow=none;html=1;rounded=0;entryX=0.75;entryY=1;entryDx=0;entryDy=0;" parent="1" target="Q7KNSdvCbGsIXJxkzza6-115" edge="1">
          <mxGeometry width="50" height="50" relative="1" as="geometry">
            <mxPoint x="1000" y="510" as="sourcePoint" />
            <mxPoint x="915" y="390" as="targetPoint" />
          </mxGeometry>
        </mxCell>
        <mxCell id="Q7KNSdvCbGsIXJxkzza6-115" value="CountryOfOrigin" style="ellipse;whiteSpace=wrap;html=1;align=center;" parent="1" vertex="1">
          <mxGeometry x="940" y="500" width="100" height="40" as="geometry" />
        </mxCell>
        <mxCell id="Q7KNSdvCbGsIXJxkzza6-117" value="" style="endArrow=none;html=1;rounded=0;entryX=1;entryY=1;entryDx=0;entryDy=0;" parent="1" target="Q7KNSdvCbGsIXJxkzza6-105" edge="1">
          <mxGeometry width="50" height="50" relative="1" as="geometry">
            <mxPoint x="1070" y="470" as="sourcePoint" />
            <mxPoint x="1060" y="430" as="targetPoint" />
          </mxGeometry>
        </mxCell>
        <mxCell id="Q7KNSdvCbGsIXJxkzza6-118" value="Description" style="ellipse;whiteSpace=wrap;html=1;align=center;" parent="1" vertex="1">
          <mxGeometry x="1040" y="460" width="100" height="40" as="geometry" />
        </mxCell>
        <mxCell id="Q7KNSdvCbGsIXJxkzza6-119" value="" style="endArrow=none;html=1;rounded=0;exitX=0.126;exitY=0.039;exitDx=0;exitDy=0;exitPerimeter=0;" parent="1" source="Q7KNSdvCbGsIXJxkzza6-105" target="Q7KNSdvCbGsIXJxkzza6-120" edge="1">
          <mxGeometry width="50" height="50" relative="1" as="geometry">
            <mxPoint x="810" y="325" as="sourcePoint" />
            <mxPoint x="830" y="180" as="targetPoint" />
          </mxGeometry>
        </mxCell>
        <mxCell id="Q7KNSdvCbGsIXJxkzza6-120" value="Main_style" style="ellipse;whiteSpace=wrap;html=1;align=center;" parent="1" vertex="1">
          <mxGeometry x="780" y="160" width="100" height="40" as="geometry" />
        </mxCell>
        <mxCell id="Q7KNSdvCbGsIXJxkzza6-121" value="1" style="text;html=1;align=center;verticalAlign=middle;resizable=0;points=[];autosize=1;strokeColor=none;fillColor=none;" parent="1" vertex="1">
          <mxGeometry x="745" y="318" width="30" height="30" as="geometry" />
        </mxCell>
        <mxCell id="Q7KNSdvCbGsIXJxkzza6-122" value="" style="endArrow=none;html=1;rounded=0;entryX=0;entryY=0.5;entryDx=0;entryDy=0;" parent="1" target="Q7KNSdvCbGsIXJxkzza6-1" edge="1">
          <mxGeometry width="50" height="50" relative="1" as="geometry">
            <mxPoint x="-10" y="490" as="sourcePoint" />
            <mxPoint x="140" y="455" as="targetPoint" />
          </mxGeometry>
        </mxCell>
        <mxCell id="Q7KNSdvCbGsIXJxkzza6-124" value="N" style="edgeLabel;html=1;align=center;verticalAlign=middle;resizable=0;points=[];" parent="Q7KNSdvCbGsIXJxkzza6-122" vertex="1" connectable="0">
          <mxGeometry x="-0.8454" y="9" relative="1" as="geometry">
            <mxPoint as="offset" />
          </mxGeometry>
        </mxCell>
        <mxCell id="Q7KNSdvCbGsIXJxkzza6-123" value="DISPLAYS" style="shape=rhombus;perimeter=rhombusPerimeter;whiteSpace=wrap;html=1;align=center;" parent="1" vertex="1">
          <mxGeometry x="-120" y="460" width="120" height="60" as="geometry" />
        </mxCell>
        <mxCell id="Q7KNSdvCbGsIXJxkzza6-125" value="" style="endArrow=none;html=1;rounded=0;entryX=0.128;entryY=0.628;entryDx=0;entryDy=0;entryPerimeter=0;" parent="1" target="Q7KNSdvCbGsIXJxkzza6-123" edge="1">
          <mxGeometry width="50" height="50" relative="1" as="geometry">
            <mxPoint x="-240" y="500" as="sourcePoint" />
            <mxPoint x="-165" y="510" as="targetPoint" />
          </mxGeometry>
        </mxCell>
        <mxCell id="Q7KNSdvCbGsIXJxkzza6-126" value="" style="endArrow=none;html=1;rounded=0;entryX=0.1;entryY=0.406;entryDx=0;entryDy=0;entryPerimeter=0;" parent="1" target="Q7KNSdvCbGsIXJxkzza6-123" edge="1">
          <mxGeometry width="50" height="50" relative="1" as="geometry">
            <mxPoint x="-230" y="484" as="sourcePoint" />
            <mxPoint x="-137" y="470" as="targetPoint" />
          </mxGeometry>
        </mxCell>
        <mxCell id="Q7KNSdvCbGsIXJxkzza6-127" value="1" style="text;html=1;align=center;verticalAlign=middle;resizable=0;points=[];autosize=1;strokeColor=none;fillColor=none;" parent="1" vertex="1">
          <mxGeometry x="-135" y="448" width="30" height="30" as="geometry" />
        </mxCell>
        <mxCell id="Q7KNSdvCbGsIXJxkzza6-128" value="EXHIBITION" style="whiteSpace=wrap;html=1;align=center;" parent="1" vertex="1">
          <mxGeometry x="-350" y="470" width="130" height="50" as="geometry" />
        </mxCell>
        <mxCell id="Q7KNSdvCbGsIXJxkzza6-129" value="" style="endArrow=none;html=1;rounded=0;exitX=0.413;exitY=-0.058;exitDx=0;exitDy=0;exitPerimeter=0;" parent="1" source="Q7KNSdvCbGsIXJxkzza6-128" target="Q7KNSdvCbGsIXJxkzza6-130" edge="1">
          <mxGeometry width="50" height="50" relative="1" as="geometry">
            <mxPoint x="-260" y="430" as="sourcePoint" />
            <mxPoint x="-296" y="410" as="targetPoint" />
          </mxGeometry>
        </mxCell>
        <mxCell id="Q7KNSdvCbGsIXJxkzza6-130" value="&lt;u&gt;Name&lt;/u&gt;" style="ellipse;whiteSpace=wrap;html=1;align=center;" parent="1" vertex="1">
          <mxGeometry x="-346" y="390" width="100" height="40" as="geometry" />
        </mxCell>
        <mxCell id="Q7KNSdvCbGsIXJxkzza6-131" value="" style="endArrow=none;html=1;rounded=0;entryX=0;entryY=0;entryDx=0;entryDy=0;" parent="1" target="Q7KNSdvCbGsIXJxkzza6-128" edge="1">
          <mxGeometry width="50" height="50" relative="1" as="geometry">
            <mxPoint x="-410" y="380" as="sourcePoint" />
            <mxPoint x="-410" y="440" as="targetPoint" />
          </mxGeometry>
        </mxCell>
        <mxCell id="Q7KNSdvCbGsIXJxkzza6-132" value="Start_Date" style="ellipse;whiteSpace=wrap;html=1;align=center;" parent="1" vertex="1">
          <mxGeometry x="-470" y="340" width="100" height="40" as="geometry" />
        </mxCell>
        <mxCell id="Q7KNSdvCbGsIXJxkzza6-133" value="" style="endArrow=none;html=1;rounded=0;" parent="1" target="Q7KNSdvCbGsIXJxkzza6-135" edge="1">
          <mxGeometry width="50" height="50" relative="1" as="geometry">
            <mxPoint x="-246" y="470" as="sourcePoint" />
            <mxPoint x="-170" y="380" as="targetPoint" />
          </mxGeometry>
        </mxCell>
        <mxCell id="Q7KNSdvCbGsIXJxkzza6-135" value="End_Date" style="ellipse;whiteSpace=wrap;html=1;align=center;" parent="1" vertex="1">
          <mxGeometry x="-220" y="360" width="100" height="40" as="geometry" />
        </mxCell>
      </root>
    </mxGraphModel>
  </diagram>
</mxfile>
